<svg width="16" height="16" viewBox="0 0 16 16" fill="none" xmlns="http://www.w3.org/2000/svg">
<path d="M7.77735 0.511719C6.29244 0.511719 4.84088 0.952044 3.60623 1.77701C2.37158 2.60198 1.40928 3.77454 0.841033 5.14642C0.272784 6.51829 0.124105 8.02786 0.413795 9.48423C0.703486 10.9406 1.41854 12.2784 2.46852 13.3284C3.51851 14.3783 4.85627 15.0934 6.31265 15.3831C7.76902 15.6728 9.27859 15.5241 10.6505 14.9558C12.0223 14.3876 13.1949 13.4253 14.0199 12.1906C14.8448 10.956 15.2852 9.50444 15.2852 8.01953C15.2852 7.03359 15.091 6.05731 14.7137 5.14642C14.3364 4.23553 13.7833 3.40787 13.0862 2.71071C12.389 2.01354 11.5614 1.46052 10.6505 1.08322C9.73957 0.705914 8.76329 0.511719 7.77735 0.511719ZM10.7805 8.77031H7.77735C7.57823 8.77031 7.38726 8.69121 7.24646 8.55041C7.10567 8.40962 7.02657 8.21865 7.02657 8.01953V5.01641C7.02657 4.81729 7.10567 4.62632 7.24646 4.48552C7.38726 4.34473 7.57823 4.26563 7.77735 4.26563C7.97647 4.26563 8.16743 4.34473 8.30823 4.48552C8.44903 4.62632 8.52813 4.81729 8.52813 5.01641V7.26875H10.7805C10.9796 7.26875 11.1706 7.34785 11.3114 7.48865C11.4522 7.62945 11.5313 7.82041 11.5313 8.01953C11.5313 8.21865 11.4522 8.40962 11.3114 8.55041C11.1706 8.69121 10.9796 8.77031 10.7805 8.77031Z" fill="#D6D6D6"/>
</svg>
