<svg width="14" height="14" viewBox="0 0 14 14" fill="none" xmlns="http://www.w3.org/2000/svg">
<path d="M0.794237 7.62938H5.30184C5.71504 7.62938 6.05311 7.29131 6.05311 6.87811V0.867967C6.05311 0.45477 5.71504 0.116699 5.30184 0.116699H0.794237C0.381039 0.116699 0.0429688 0.45477 0.0429688 0.867967V6.87811C0.0429688 7.29131 0.381039 7.62938 0.794237 7.62938ZM0.794237 13.6395H5.30184C5.71504 13.6395 6.05311 13.3015 6.05311 12.8883V9.88318C6.05311 9.46999 5.71504 9.13191 5.30184 9.13191H0.794237C0.381039 9.13191 0.0429688 9.46999 0.0429688 9.88318V12.8883C0.0429688 13.3015 0.381039 13.6395 0.794237 13.6395ZM8.30692 13.6395H12.8145C13.2277 13.6395 13.5658 13.3015 13.5658 12.8883V6.87811C13.5658 6.46491 13.2277 6.12684 12.8145 6.12684H8.30692C7.89372 6.12684 7.55565 6.46491 7.55565 6.87811V12.8883C7.55565 13.3015 7.89372 13.6395 8.30692 13.6395ZM7.55565 0.867967V3.87304C7.55565 4.28624 7.89372 4.62431 8.30692 4.62431H12.8145C13.2277 4.62431 13.5658 4.28624 13.5658 3.87304V0.867967C13.5658 0.45477 13.2277 0.116699 12.8145 0.116699H8.30692C7.89372 0.116699 7.55565 0.45477 7.55565 0.867967Z" fill="#D6D6D6"/>
</svg>
