<svg width="16" height="16" viewBox="0 0 16 16" fill="none" xmlns="http://www.w3.org/2000/svg">
<path d="M11.47 8.55838C12.0335 8.55838 12.5293 8.25036 12.7847 7.78458L15.4743 2.90885C15.7522 2.41301 15.3916 1.79697 14.8207 1.79697H3.7019L2.99571 0.294434H0.539062V1.79697H2.0416L4.74616 7.49909L3.73195 9.33219C3.18353 10.3389 3.90474 11.5635 5.04667 11.5635H14.0619V10.0609H5.04667L5.87307 8.55838H11.47ZM4.41561 3.29951H13.5435L11.47 7.05585H6.19611L4.41561 3.29951ZM5.04667 12.3147C4.22028 12.3147 3.55165 12.9909 3.55165 13.8173C3.55165 14.6437 4.22028 15.3198 5.04667 15.3198C5.87307 15.3198 6.54921 14.6437 6.54921 13.8173C6.54921 12.9909 5.87307 12.3147 5.04667 12.3147ZM12.5594 12.3147C11.733 12.3147 11.0643 12.9909 11.0643 13.8173C11.0643 14.6437 11.733 15.3198 12.5594 15.3198C13.3857 15.3198 14.0619 14.6437 14.0619 13.8173C14.0619 12.9909 13.3857 12.3147 12.5594 12.3147Z" fill="#D6D6D6"/>
</svg>
