<svg width="13" height="13" viewBox="0 0 13 13" fill="none" xmlns="http://www.w3.org/2000/svg">
<path d="M6.2021 3.01484H7.40413V4.21687H6.2021V3.01484ZM6.80311 9.02498C7.13367 9.02498 7.40413 8.75453 7.40413 8.42397V6.01991C7.40413 5.68935 7.13367 5.4189 6.80311 5.4189C6.47256 5.4189 6.2021 5.68935 6.2021 6.01991V8.42397C6.2021 8.75453 6.47256 9.02498 6.80311 9.02498ZM6.80311 0.00976562C3.48551 0.00976562 0.792969 2.70231 0.792969 6.01991C0.792969 9.33751 3.48551 12.0301 6.80311 12.0301C10.1207 12.0301 12.8133 9.33751 12.8133 6.01991C12.8133 2.70231 10.1207 0.00976562 6.80311 0.00976562ZM6.80311 10.828C4.15264 10.828 1.995 8.67038 1.995 6.01991C1.995 3.36944 4.15264 1.21179 6.80311 1.21179C9.45359 1.21179 11.6112 3.36944 11.6112 6.01991C11.6112 8.67038 9.45359 10.828 6.80311 10.828Z" fill="#D6D6D6"/>
</svg>
