<svg width="11" height="13" viewBox="0 0 11 13" fill="none" xmlns="http://www.w3.org/2000/svg">
<path fill-rule="evenodd" clip-rule="evenodd" d="M3.54459 0.4766C3.7731 0.251541 4.08304 0.125068 4.40625 0.125H6.84375C7.16698 0.125 7.47698 0.251428 7.70554 0.476472C7.9341 0.701515 8.0625 1.00674 8.0625 1.325V2.525H9.89062C10.0522 2.525 10.2072 2.58821 10.3215 2.70074C10.4358 2.81326 10.5 2.96587 10.5 3.125C10.5 3.28413 10.4358 3.43674 10.3215 3.54926C10.2072 3.66179 10.0522 3.725 9.89062 3.725V10.925C9.89062 11.2433 9.76222 11.5485 9.53366 11.7735C9.3051 11.9986 8.99511 12.125 8.67188 12.125H2.57812C2.25489 12.125 1.9449 11.9986 1.71634 11.7735C1.48778 11.5485 1.35938 11.2433 1.35938 10.925V3.725C1.19776 3.725 1.04276 3.66179 0.928482 3.54926C0.814202 3.43674 0.75 3.28413 0.75 3.125C0.75 2.96587 0.814202 2.81326 0.928482 2.70074C1.04276 2.58821 1.19776 2.525 1.35938 2.525H3.1875V1.325C3.18757 1.00677 3.31602 0.701591 3.54459 0.4766ZM4.40625 2.525H6.84375V1.325H4.40625V2.525ZM5.01562 4.925C5.01562 4.76587 4.95142 4.61326 4.83714 4.50074C4.72286 4.38821 4.56787 4.325 4.40625 4.325C4.24463 4.325 4.08964 4.38821 3.97536 4.50074C3.86108 4.61326 3.79688 4.76587 3.79688 4.925V9.725C3.79688 9.88413 3.86108 10.0367 3.97536 10.1493C4.08964 10.2618 4.24463 10.325 4.40625 10.325C4.56787 10.325 4.72286 10.2618 4.83714 10.1493C4.95142 10.0367 5.01562 9.88413 5.01562 9.725V4.925ZM7.45312 4.925C7.45312 4.76587 7.38892 4.61326 7.27464 4.50074C7.16036 4.38821 7.00537 4.325 6.84375 4.325C6.68213 4.325 6.52714 4.38821 6.41286 4.50074C6.29858 4.61326 6.23438 4.76587 6.23438 4.925V9.725C6.23438 9.88413 6.29858 10.0367 6.41286 10.1493C6.52714 10.2618 6.68213 10.325 6.84375 10.325C7.00537 10.325 7.16036 10.2618 7.27464 10.1493C7.38892 10.0367 7.45312 9.88413 7.45312 9.725V4.925Z" fill="white"/>
</svg>
